<mxfile host="app.diagrams.net" modified="2023-05-22T06:15:56.729Z" agent="Mozilla/5.0 (Windows NT 10.0; Win64; x64) AppleWebKit/537.36 (KHTML, like Gecko) Chrome/113.0.0.0 Safari/537.36" version="21.3.2" etag="eNnfOtvsQOePdpxMM_qe" type="github">
  <diagram name="페이지-1" id="RVvx3r3hJRfU2RVgau1x">
    <mxGraphModel>
      <root>
        <mxCell id="0" />
        <mxCell id="1" parent="0" />
      </root>
    </mxGraphModel>
  </diagram>
</mxfile>
